<?xml version="1.0" encoding="UTF-8" standalone="no"?>
<!-- Created with Inkscape (http://www.inkscape.org/) -->

<svg
   xmlns:dc="http://purl.org/dc/elements/1.1/"
   xmlns:cc="http://creativecommons.org/ns#"
   xmlns:rdf="http://www.w3.org/1999/02/22-rdf-syntax-ns#"
   xmlns:svg="http://www.w3.org/2000/svg"
   xmlns="http://www.w3.org/2000/svg"
   xmlns:sodipodi="http://sodipodi.sourceforge.net/DTD/sodipodi-0.dtd"
   xmlns:inkscape="http://www.inkscape.org/namespaces/inkscape"
   width="744.09448819"
   height="1052.3622047"
   id="svg2"
   version="1.1"
   inkscape:version="0.48.5 r10040"
   sodipodi:docname="githubIcon.svg">
  <defs
     id="defs4" />
  <sodipodi:namedview
     id="base"
     pagecolor="#ffffff"
     bordercolor="#666666"
     borderopacity="1.0"
     inkscape:pageopacity="0.0"
     inkscape:pageshadow="2"
     inkscape:zoom="5.6"
     inkscape:cx="3.4667083"
     inkscape:cy="980.22905"
     inkscape:document-units="px"
     inkscape:current-layer="layer1"
     showgrid="false"
     inkscape:window-width="1920"
     inkscape:window-height="1028"
     inkscape:window-x="-8"
     inkscape:window-y="-8"
     inkscape:window-maximized="1" />
  <metadata
     id="metadata7">
    <rdf:RDF>
      <cc:Work
         rdf:about="">
        <dc:format>image/svg+xml</dc:format>
        <dc:type
           rdf:resource="http://purl.org/dc/dcmitype/StillImage" />
        <dc:title />
      </cc:Work>
    </rdf:RDF>
  </metadata>
  <g
     inkscape:label="Layer 1"
     inkscape:groupmode="layer"
     id="layer1">
    <path
       style="fill:#d45500;fill-opacity:1;stroke:none"
       d="m 14.64455,3.7060137 c -6.2622963,0 -11.3345953,5.0723002 -11.3345953,11.3345963 0,6.262295 5.072299,11.334592 11.3345953,11.334592 6.262296,0 11.334595,-5.072297 11.334595,-11.334592 0,-6.2622961 -5.072299,-11.3345963 -11.334595,-11.3345963 z m -4.615014,7.4712123 c 0.926609,8e-6 1.658715,0.197645 2.17973,0.586273 0.521001,0.388641 0.842801,0.922868 0.992153,1.60849 l -1.48823,0.28562 c -0.105226,-0.366567 -0.296074,-0.65975 -0.586272,-0.871892 -0.290208,-0.212132 -0.66293,-0.315678 -1.097381,-0.315686 -0.6584773,8e-6 -1.1897933,0.213892 -1.5784263,0.631371 -0.388637,0.417491 -0.571241,1.042653 -0.571239,1.864044 -2e-6,0.885888 0.192544,1.541367 0.586272,1.984307 0.393724,0.442943 0.910248,0.661436 1.5483603,0.661435 0.315655,1e-6 0.629693,-0.0565 0.947055,-0.180392 0.317352,-0.123886 0.584345,-0.274478 0.811761,-0.450979 l 0,-0.947055 -1.713718,0 0,-1.26274 3.247045,0 0,2.976459 c -0.315666,0.305478 -0.768899,0.57926 -1.367968,0.811762 -0.59908,0.232502 -1.219634,0.34575 -1.833979,0.34575 -0.7806683,0 -1.4640323,-0.168537 -2.0444373,-0.496076 -0.580409,-0.32754 -1.000905,-0.788775 -1.292804,-1.398034 -0.291902,-0.609255 -0.450979,-1.28316 -0.450979,-1.999338 0,-0.777266 0.170233,-1.455298 0.496077,-2.059469 0.32584,-0.604161 0.80017,-1.075578 1.428098,-1.398034 0.478578,-0.247769 1.076097,-0.375808 1.7888823,-0.375816 z m 4.615014,0.135294 1.503262,0 0,7.456179 -1.503262,0 0,-7.456179 z m 2.390186,0 5.937885,0 0,1.26274 -2.209795,0 0,6.193439 -1.503262,0 0,-6.193439 -2.224828,0 0,-1.26274 z"
       id="path1"
       inkscape:connector-curvature="0"
       inkscape:label="#path2984" />
    <path
       style="fill:#d45500;fill-opacity:1;stroke:none"
       d="m 14.641504,2.9013976 c -6.7066043,0 -12.1387814,5.4321773 -12.1387814,12.1387814 0,6.706603 5.4321771,12.13878 12.1387814,12.13878 6.706603,0 12.15488,-5.432177 12.15488,-12.13878 0,-6.7066041 -5.448277,-12.1387814 -12.15488,-12.1387814 z m 1.320131,2.7529595 c 0.298915,5.4e-6 0.586887,0.0703 0.869357,0.20929 0.28247,0.1389988 0.52338,0.322849 0.692264,0.5634712 0.168885,0.2406266 0.267041,0.5327456 0.305885,0.8854546 0.02396,0.2212 0.04232,0.764003 0.0483,1.609919 l 0,2.2377851 -6.568464,0 0,-2.6402651 c 6e-6,-0.520104 0.005,-0.88747 0.0483,-1.143042 0.04335,-0.255567 0.136195,-0.506596 0.273687,-0.708364 0.137506,-0.2017625 0.334808,-0.3645627 0.563471,-0.4990743 0.22867,-0.134507 0.488802,-0.2092841 0.772761,-0.2092895 0.307888,5.4e-6 0.580095,0.091695 0.837156,0.2575866 0.257068,0.1659013 0.451046,0.3922072 0.579571,0.6761662 0.11658,-0.4005382 0.314695,-0.7185338 0.59567,-0.9337528 0.280975,-0.215214 0.602434,-0.3058796 0.982049,-0.305885 z m -0.0644,1.3523308 c -0.19728,6e-6 -0.361574,0.06534 -0.499074,0.160992 -0.1375,0.09566 -0.227012,0.221638 -0.289786,0.402479 -0.06276,0.180848 -0.112693,0.587541 -0.112693,1.19134 l 0,1.062546 1.770909,0 0,-1.223538 c 0,-0.478255 -0.0214,-0.773013 -0.0483,-0.901554 -0.03587,-0.197275 -0.118591,-0.375021 -0.257586,-0.499074 -0.138993,-0.124044 -0.330318,-0.193185 -0.563471,-0.193191 z m -2.75296,0.257588 c -0.203256,4e-6 -0.372032,0.04891 -0.499074,0.160991 -0.127031,0.112097 -0.198496,0.277885 -0.225389,0.499075 -0.01493,0.131524 -0.01609,0.518321 -0.0161,1.143041 l 0,0.756662 1.497224,0 0,-0.869355 c 0,-0.517116 -0.0012,-0.840409 -0.0161,-0.965952 -0.0269,-0.22717 -0.09536,-0.401242 -0.225388,-0.531272 -0.130017,-0.13002 -0.302936,-0.193186 -0.515167,-0.19319 z m -1.835305,5.2966291 3.445224,0 c 0.789128,6e-6 1.348503,0.04097 1.674314,0.112694 0.325812,0.07174 0.596875,0.193587 0.821058,0.386381 0.224189,0.192804 0.398255,0.449937 0.531274,0.77276 0.133012,0.322829 0.209288,0.751732 0.209288,1.271835 0,0.627714 -0.08042,1.092411 -0.225388,1.416728 -0.14497,0.324318 -0.331813,0.584449 -0.563471,0.772761 -0.231653,0.188317 -0.47039,0.310501 -0.724463,0.370281 -0.376628,0.08668 -0.938992,0.128793 -1.674315,0.128793 l -3.493521,0 0,-1.304034 3.541819,0 c 0.564944,6e-6 0.943453,-0.03153 1.110843,-0.0644 0.269024,-0.05679 0.481063,-0.188755 0.643967,-0.402479 0.162908,-0.213715 0.241488,-0.498704 0.241488,-0.869356 0,-0.376628 -0.07145,-0.661951 -0.225388,-0.853256 -0.15394,-0.1913 -0.339289,-0.315338 -0.563471,-0.354182 -0.224184,-0.03887 -0.590735,-0.0483 -1.110845,-0.0483 l -3.638413,0 0,-1.33623 z m 0,6.616762 6.568465,0 0,1.320133 -2.881753,0 0,2.591968 2.881753,0 0,1.336232 -6.568465,0 0,-1.336232 2.575868,0 0,-2.591968 -2.575868,0 0,-1.320133 z"
       id="path2"
       inkscape:connector-curvature="0"
       inkscape:label="#path2986" />
  </g>
</svg>
