<?xml version="1.0" encoding="UTF-8" standalone="no"?>
<!-- Created with Inkscape (http://www.inkscape.org/) -->

<svg
   xmlns:dc="http://purl.org/dc/elements/1.1/"
   xmlns:cc="http://creativecommons.org/ns#"
   xmlns:rdf="http://www.w3.org/1999/02/22-rdf-syntax-ns#"
   xmlns:svg="http://www.w3.org/2000/svg"
   xmlns="http://www.w3.org/2000/svg"
   xmlns:sodipodi="http://sodipodi.sourceforge.net/DTD/sodipodi-0.dtd"
   xmlns:inkscape="http://www.inkscape.org/namespaces/inkscape"
   width="744.09448819"
   height="1052.3622047"
   id="svg2"
   version="1.1"
   inkscape:version="0.48.5 r10040"
   sodipodi:docname="homeIcon.svg">
  <defs
     id="defs4" />
  <sodipodi:namedview
     id="base"
     pagecolor="#ffffff"
     bordercolor="#666666"
     borderopacity="1.0"
     inkscape:pageopacity="0.0"
     inkscape:pageshadow="2"
     inkscape:zoom="14.869888"
     inkscape:cx="10.7384"
     inkscape:cy="1025.4455"
     inkscape:document-units="px"
     inkscape:current-layer="layer1"
     showgrid="false"
     inkscape:window-width="1920"
     inkscape:window-height="1028"
     inkscape:window-x="-8"
     inkscape:window-y="-8"
     inkscape:window-maximized="1" />
  <metadata
     id="metadata7">
    <rdf:RDF>
      <cc:Work
         rdf:about="">
        <dc:format>image/svg+xml</dc:format>
        <dc:type
           rdf:resource="http://purl.org/dc/dcmitype/StillImage" />
        <dc:title />
      </cc:Work>
    </rdf:RDF>
  </metadata>
  <g
     inkscape:label="Layer 1"
     inkscape:groupmode="layer"
     id="layer1">
    <path
       style="fill:#1a1a1a;fill-opacity:1;stroke:none"
       d="m 9.0784019,3.4096939 0,11.2198571 -0.504892,0 0,-1.94622 -3.5231085,0 0,13.296492 c 6.8792346,8.9e-4 13.7567666,0 20.6359866,0 l 0,-13.296492 -3.9546,0 0,1.94622 -0.360317,0 0,-11.2198571 -4.312692,0 0,1.9462209 -3.667684,0 0,-1.9462209 -4.3126931,0 z m 4.3126931,2.7507919 c 0.916038,0 1.652569,0.666427 1.652569,1.492771 l 0,1.540923 0,3.4891512 -2.012886,0 0,2.178962 -1.292253,0 0,-1.492771 0,-4.1753422 0,-1.540923 c 0,-0.826344 0.736536,-1.492771 1.65257,-1.492771 z m 4.170346,0 c 0.916033,0 1.652569,0.666427 1.652569,1.492771 l 0,1.540923 0,4.1753422 0,1.492771 -1.652569,0 -0.215746,0 0,-2.178962 -1.439047,0 0,-3.4891512 0,-1.540923 c 0,-0.826344 0.73876,-1.492771 1.654793,-1.492771 z M 8.6469089,16.019995 c 0.916034,0 1.6525701,0.664421 1.6525701,1.490763 l 0,1.540924 0,4.17735 0,1.490763 -1.6525701,0 -1.654793,0 0,-1.490763 0,-4.17735 0,-1.540924 c 0,-0.826342 0.738755,-1.490763 1.654793,-1.490763 z m 4.4817301,0 c 0.916038,0 1.652575,0.664421 1.652575,1.490763 l 0,1.540924 0,4.17735 0,1.490763 -1.652575,0 -1.654793,0 0,-1.490763 0,-4.17735 0,-1.540924 c 0,-0.826342 0.73876,-1.490763 1.654793,-1.490763 z m 4.481735,0 c 0.916034,0 1.65257,0.664421 1.65257,1.490763 l 0,1.540924 0,4.17735 0,1.490763 -1.65257,0 -1.654793,0 0,-1.490763 0,-4.17735 0,-1.540924 c 0,-0.826342 0.73876,-1.490763 1.654793,-1.490763 z m 4.48173,0 c 0.916038,0 1.652574,0.664421 1.652574,1.490763 l 0,1.540924 0,4.17735 0,1.490763 -1.652574,0 -1.654789,0 0,-1.490763 0,-4.17735 0,-1.540924 c 0,-0.826342 0.738756,-1.490763 1.654789,-1.490763 z"
       id="path1"
       inkscape:connector-curvature="0"
       inkscape:label="#rect3766" />
    <g
       style="font-size:15.38802624px;font-style:normal;font-weight:normal;line-height:125%;letter-spacing:0px;word-spacing:0px;fill:#ffe6d5;fill-opacity:1;stroke:none;font-family:Sans"
       id="text2986" />
    <path
       inkscape:label="#rect3766"
       inkscape:connector-curvature="0"
       id="path2"
       d="m 9.0654049,3.3217571 c -1.959533,1.7676727 0,11.1373689 0,11.1373689 l -0.501179,0 0,-1.931912 c 0,0 -1.360741,-1.927282 -3.4972079,0 -2.1364659,1.927281 -3.2280953,11.406301 0,13.198738 3.2280969,1.792438 17.007873,1.679995 20.484273,0 3.476401,-1.679993 2.186944,-11.22592 0,-13.198738 -2.186944,-1.972817 -3.925527,0 -3.925527,0 l 0,1.931912 -0.357667,0 c 0,0 1.959534,-9.3696962 0,-11.1373689 -1.959532,-1.7676723 -3.524077,-0.6827992 -4.280986,0 -0.756909,0.6827987 0,1.9319117 0,1.9319117 l -3.640719,0 c 0,0 0.756909,-1.249113 0,-1.9319117 -0.756909,-0.6827992 -2.321454,-1.7676723 -4.2809871,0 z m 4.2809871,2.7305677 c 0.909304,0 1.640419,0.661528 1.640419,1.481795 l 0,1.529595 0,3.4634992 -1.998087,0 0,2.162943 -1.282752,0 0,-1.481796 0,-4.1446462 0,-1.529595 c 0,-0.820267 0.731121,-1.481795 1.64042,-1.481795 z m 4.139687,0 c 0.909297,0 1.640419,0.661528 1.640419,1.481795 l 0,1.529595 0,4.1446462 0,1.481796 -1.640419,0 -0.21416,0 0,-2.162943 -1.428468,0 0,-3.4634992 0,-1.529595 c 0,-0.820267 0.733329,-1.481795 1.642628,-1.481795 z M 8.6370849,15.839348 c 0.909299,0 1.6404201,0.659536 1.6404201,1.479803 l 0,1.529595 0,4.146638 0,1.479804 -1.6404201,0 -1.642626,0 0,-1.479804 0,-4.146638 0,-1.529595 c 0,-0.820267 0.733323,-1.479803 1.642626,-1.479803 z m 4.4487811,0 c 0.909303,0 1.640425,0.659536 1.640425,1.479803 l 0,1.529595 0,4.146638 0,1.479804 -1.640425,0 -1.642627,0 0,-1.479804 0,-4.146638 0,-1.529595 c 0,-0.820267 0.733329,-1.479803 1.642627,-1.479803 z m 4.448785,0 c 0.9093,0 1.64042,0.659536 1.64042,1.479803 l 0,1.529595 0,4.146638 0,1.479804 -1.64042,0 -1.642626,0 0,-1.479804 0,-4.146638 0,-1.529595 c 0,-0.820267 0.733328,-1.479803 1.642626,-1.479803 z m 4.448782,0 c 0.909303,0 1.640424,0.659536 1.640424,1.479803 l 0,1.529595 0,4.146638 0,1.479804 -1.640424,0 -1.642623,0 0,-1.479804 0,-4.146638 0,-1.529595 c 0,-0.820267 0.733324,-1.479803 1.642623,-1.479803 z"
       style="fill:#c83737;fill-opacity:1;stroke:none"
       sodipodi:nodetypes="zccczzzzccczzcczzsscccccccssssccccccccsssscccccccsssscccccccsssscccccccsssscccccccss" />
  </g>
</svg>
