<?xml version="1.0" encoding="UTF-8" standalone="no"?>
<!-- Created with Inkscape (http://www.inkscape.org/) -->

<svg
   xmlns:dc="http://purl.org/dc/elements/1.1/"
   xmlns:cc="http://creativecommons.org/ns#"
   xmlns:rdf="http://www.w3.org/1999/02/22-rdf-syntax-ns#"
   xmlns:svg="http://www.w3.org/2000/svg"
   xmlns="http://www.w3.org/2000/svg"
   xmlns:sodipodi="http://sodipodi.sourceforge.net/DTD/sodipodi-0.dtd"
   xmlns:inkscape="http://www.inkscape.org/namespaces/inkscape"
   width="744.09448819"
   height="1052.3622047"
   id="svg2"
   version="1.1"
   inkscape:version="0.48.5 r10040"
   sodipodi:docname="me.svg">
  <defs
     id="defs4" />
  <sodipodi:namedview
     id="base"
     pagecolor="#ffffff"
     bordercolor="#666666"
     borderopacity="1.0"
     inkscape:pageopacity="0.0"
     inkscape:pageshadow="2"
     inkscape:zoom="0.0875"
     inkscape:cx="1746.1565"
     inkscape:cy="-1667.8226"
     inkscape:document-units="px"
     inkscape:current-layer="layer1"
     showgrid="false"
     inkscape:window-width="1920"
     inkscape:window-height="1028"
     inkscape:window-x="-8"
     inkscape:window-y="-8"
     inkscape:window-maximized="1" />
  <metadata
     id="metadata7">
    <rdf:RDF>
      <cc:Work
         rdf:about="">
        <dc:format>image/svg+xml</dc:format>
        <dc:type
           rdf:resource="http://purl.org/dc/dcmitype/StillImage" />
        <dc:title></dc:title>
      </cc:Work>
    </rdf:RDF>
  </metadata>
  <g
     inkscape:label="Layer 1"
     inkscape:groupmode="layer"
     id="layer1">
    <g
       id="g4177"
       transform="matrix(0.62216486,0,0,0.62216486,4939.2805,-448.24487)"
       style="stroke:none"
       inkscape:export-filename="C:\Users\analog\Desktop\analogPixelorg\img\logo.png"
       inkscape:export-xdpi="28.280001"
       inkscape:export-ydpi="28.280001">
      <path
         inkscape:connector-curvature="0"
         id="path4115"
         d="m -1837.8921,1326.9542 c -63.0256,3.5739 -122.2451,27.523 -180.883,49.0154 -121.7384,47.4488 -238.783,106.5502 -350.7107,173.8284 -55.2033,33.9145 -109.457,70.4003 -155.7187,116 -5.4766,5.6095 -10.6787,11.5346 -15.5626,17.6875 -53.9163,-42.832 -111.9029,-82.975 -178.6786,-102.6857 -35.8653,-10.0522 -76.9516,-9.2923 -108.9059,11.6924 -32.1079,19.8554 -58.7232,47.042 -85.8842,72.9933 -64.9982,65.1734 -123.5314,136.9015 -174.6064,213.5267 -21.6908,33.7964 -42.3366,69.5456 -52.1749,108.8483 -5.082,23.1624 -2.0044,50.3066 15.5,67.5937 17.8328,18.2236 45.6181,21.9754 69.6563,16.7813 41.8652,-6.5985 80.6833,-25.684 116.125,-48.1563 101.8013,34.1139 210.0372,55.7652 317.8649,47.0183 85.7377,-8.3247 167.037,-41.1667 241.8538,-82.3933 25.2076,23.3523 56.1366,45.0261 91.8126,46.1563 27.3632,0.1994 50.9586,-15.8442 72.5312,-30.8125 51.5185,-35.1654 99.4943,-75.2207 149.0999,-113.0539 81.4588,-63.7598 162.6057,-128.4348 251.1501,-182.1336 121.0886,143.2998 293.2378,239.2576 475.5312,280 245.864,55.564 514.81253,15.8482 728.37501,-119.75 10.81093,-6.8721 21.46937,-13.9882 31.96875,-21.3125 70.65018,39.7057 132.20507,93.1975 195.0159,144.0897 50.6132,41.5455 100.18097,84.7008 148.79457,128.736 18.00038,15.1276 36.55927,30.8042 58.37703,40.1118 30.3046,9.706 63.50643,2.3786 91.48818,-11.041 15.38892,-7.7229 29.51401,-17.6226 43.13682,-28.0527 81.36765,43.9683 170.62547,77.7878 264.05972,80.3991 98.59402,3.5039 196.21957,-18.1471 289.37778,-48.5554 42.8674,27.4305 91.5488,49.9886 143.3438,50 28.6598,-1.4404 56.3395,-24.0356 58.8821,-53.5225 4.6497,-32.661 -10.3845,-63.7409 -24.4955,-92.1253 -33.8864,-64.8021 -79.719,-122.194 -125.9964,-178.4146 -45.6164,-53.8187 -94.24482,-105.7282 -150.17031,-149.0535 -23.41933,-17.3316 -52.25749,-28.6763 -81.75025,-26.4344 -49.07481,1.8596 -93.81471,25.1247 -135.34469,49.269 -30.4336,18.383 -58.8374,39.888 -86.8125,61.75 -43.18078,-51.6022 -97.30431,-92.4893 -150.625,-133.0937 -100.07711,-73.7277 -206.77216,-138.6986 -317.3125,-195.6563 -50.22117,-25.2028 -101.87751,-49.0986 -156.32183,-63.708 -38.36062,-9.0989 -78.80198,-6.6595 -116.5505,4.1538 -69.68679,19.057 -130.64925,60.5261 -184.90892,107.1168 -7.38448,6.4127 -14.66279,12.9808 -21.71875,19.75 -33.96727,-8.3071 -69.27691,-12.3493 -101.03095,-27.7445 -18.0514,-7.3119 -35.81888,-15.7926 -54.3128,-21.6931 -32.09186,0.055 -64.61956,7.5128 -96.23696,-0.6073 -101.3253,-17.6273 -202.8043,-34.1081 -304.5755,-48.7989 -49.4209,15.2936 -98.843,30.5684 -148.25,45.9062 -53.4855,-63.4574 -117.7209,-120.6294 -194.875,-153.4062 -31.4911,-12.9297 -65.3194,-20.7237 -99.5313,-20.2188 z"
         style="fill:#241c1c;fill-opacity:1;stroke:none" />
      <path
         transform="matrix(0.86,0,0,0.86,41.161331,-245.33501)"
         d="m -387.89862,1763.5095 c 0,446.3135 -425.12506,808.122 -949.54338,808.122 -524.4184,0 -949.5434,-361.8085 -949.5434,-808.122 0,-446.3134 425.125,-808.12199 949.5434,-808.12199 524.41832,0 949.54338,361.80859 949.54338,808.12199 z"
         sodipodi:ry="808.12201"
         sodipodi:rx="949.5434"
         sodipodi:cy="1763.5095"
         sodipodi:cx="-1337.442"
         id="path4062"
         style="fill:#241c1c;fill-opacity:1;stroke:none"
         sodipodi:type="arc" />
      <text
         sodipodi:linespacing="125%"
         id="text4161"
         y="2799.375"
         x="-3234.3359"
         style="font-size:1362.91882324px;font-style:normal;font-weight:normal;line-height:125%;letter-spacing:0px;word-spacing:0px;fill:#241c1c;fill-opacity:1;stroke:none;font-family:Sans"
         xml:space="preserve"><tspan
           style="font-style:normal;font-variant:normal;font-weight:bold;font-stretch:normal;fill:#241c1c;fill-opacity:1;stroke:none;font-family:Arial;-inkscape-font-specification:Arial Bold"
           y="2799.375"
           x="-3234.3359"
           id="tspan4163"
           sodipodi:role="line">A</tspan></text>
      <text
         transform="matrix(0.83903437,0.54407842,-0.54407842,0.83903437,0,0)"
         xml:space="preserve"
         style="font-size:1450.8692627px;font-style:normal;font-weight:normal;line-height:125%;letter-spacing:0px;word-spacing:0px;fill:#241c1c;fill-opacity:1;stroke:none;font-family:Sans"
         x="1042.538"
         y="2458.8228"
         id="text4165"
         sodipodi:linespacing="125%"><tspan
           sodipodi:role="line"
           id="tspan4167"
           x="1042.538"
           y="2458.8228"
           style="font-style:normal;font-variant:normal;font-weight:bold;font-stretch:normal;fill:#241c1c;fill-opacity:1;stroke:none;font-family:Arial;-inkscape-font-specification:Arial Bold">P</tspan></text>
      <g
         id="g4100"
         style="stroke:none">
        <path
           inkscape:connector-curvature="0"
           id="path4092"
           d="m 34.657528,1941.6617 c 11.4286,-14.2857 248.571402,-254.2857 351.428602,-194.2857 102.8571,60 402.8571,428.5714 262.8571,408.5714 -140,-20 -257.1428,-205.7143 -342.8571,-188.5714 -85.7143,17.1428 131.4285,34.2857 131.4285,34.2857 l 114.2858,91.4286 c 0,0 -222.8572,94.2857 -400,51.4285 -177.142902,-42.8571 -317.1429,-171.4285 -317.1429,-171.4285 z"
           style="fill:#e7c3b3;fill-opacity:1;stroke:none" />
        <path
           id="path4094"
           d="m 102.65753,1876.2995 c -2.979002,52.1947 -6.352902,203.5055 53.75,218.5312 72.7309,18.1828 309.1017,-44.4515 339.4062,-58.5937 30.3046,-14.1421 64.6409,36.3736 125.25,70.7187 25.9548,14.7077 47.0939,15.3076 62.7813,11.2188 5.8722,27.0138 -3.3363,42.2912 -34.9063,37.7812 -42.4837,-6.0691 -82.8403,-27.4292 -120.875,-53.7187 -61.9221,22.5627 -233.8091,76.7428 -376.25,42.2813 -137.475202,-33.2602 -252.5303,-118.1202 -297.1874,-154.4688 l 54.249998,-28.625 125.7812,-19.75 c 3.6392,-4.549 30.2109,-32.0266 68.000002,-65.375 z"
           style="fill:#a88b7d;fill-opacity:1;stroke:none"
           inkscape:connector-curvature="0" />
        <path
           inkscape:connector-curvature="0"
           id="path4068"
           d="m -827.54878,1605.0036 c 0,0 147.6756,-166.9293 292.75206,-153.3113 145.07656,13.618 735.8356,384.7384 645.33045,462.334 -90.505042,77.5956 -201.908844,224.972 -262.88872,202.0297 -60.97997,-22.9423 -422.20615,-424.1715 -499.37096,-396.9784 -77.1648,27.1931 -321.38366,213.7572 -611.53675,186.5212 -290.1531,-27.236 -395.9173,-215.0853 -430.6689,-272.8718 -34.7516,-57.7864 706.20009,-94.414 706.20009,-94.414 z"
           style="fill:#c83737;fill-opacity:1;stroke:none" />
        <path
           style="fill:#e7c3b3;fill-opacity:1;stroke:none"
           d="m -2440,1812.3622 c -11.4286,-14.2857 -248.5714,-254.2857 -351.4286,-194.2857 -102.8571,60 -402.8571,428.5714 -262.8571,408.5714 140,-20 257.1428,-205.7143 342.8571,-188.5714 85.7143,17.1428 -131.4285,34.2857 -131.4285,34.2857 l -114.2858,91.4286 c 0,0 222.8572,94.2857 400,51.4285 C -2380,1972.3622 -2240,1843.7908 -2240,1843.7908 z"
           id="path4070"
           inkscape:connector-curvature="0" />
        <path
           style="fill:#a88b7d;fill-opacity:1;stroke:none"
           d="m -2508,1747 c 2.979,52.1947 6.3529,203.5055 -53.75,218.5312 -72.7309,18.1828 -309.1017,-44.4515 -339.4062,-58.5937 -30.3046,-14.1421 -64.6409,36.3736 -125.25,70.7187 -25.9548,14.7077 -47.0939,15.3076 -62.7813,11.2188 -5.8722,27.0138 3.3363,42.2912 34.9063,37.7812 42.4837,-6.0691 82.8403,-27.4292 120.875,-53.7187 61.9221,22.5627 233.8091,76.7428 376.25,42.2813 137.4752,-33.2602 252.5303,-118.1202 297.1874,-154.4688 l -54.25,-28.625 -125.7812,-19.75 c -3.6392,-4.549 -30.2109,-32.0266 -68,-65.375 z"
           id="path4077"
           inkscape:connector-curvature="0" />
        <path
           style="fill:#c83737;fill-opacity:1;stroke:none"
           d="m -1545.7143,1540.9336 c 0,0 -131.4286,-180 -277.1428,-180 -145.7143,0 -768.5715,314.2857 -685.7143,400 82.8571,85.7143 180,242.8572 242.8571,225.7143 62.8572,-17.1429 460,-382.8571 534.2857,-348.5714 74.2857,34.2857 300,242.8571 591.4286,242.8571 291.42857,0 414.28571,-177.1428 454.28571,-231.4286 40,-54.2857 -694.28571,-160 -694.28571,-160 z"
           id="path4066"
           inkscape:connector-curvature="0" />
        <path
           inkscape:connector-curvature="0"
           id="path4096"
           d="m 507.93743,2007.9665 c 0,0 -141.4213,-149.5026 -169.7056,-139.4011 -28.2843,10.1015 -70.7107,131.3198 -56.5685,113.1371 14.1421,-18.1827 34.3452,-40.4061 72.731,-18.1827 38.3857,22.2233 6.0609,30.3045 36.3654,32.3248 30.3046,2.0203 54.5483,-34.3452 48.4874,-16.1624 -6.0609,18.1827 -22.2234,28.2843 12.1218,30.3046 34.3452,2.0203 56.5685,-2.0203 56.5685,-2.0203 z"
           style="fill:#a88b7d;fill-opacity:1;stroke:none" />
        <path
           style="fill:#c83737;fill-opacity:1;stroke:none"
           d="m -1830.4062,1569.5625 31.4687,73.6875 c 144.8278,194.153 399.6819,323.0312 689.9063,323.0312 244.775,0 464.36192,-91.6902 614.0312,-236.875 l -200,-70.9374 c 0,0 -206.05052,88.875 -359.5938,88.875 -153.5431,0 -545.5,-109.0938 -545.5,-109.0938 l -230.3124,-68.6875 z"
           id="path4072"
           inkscape:connector-curvature="0" />
        <path
           style="fill:#a88b7d;fill-opacity:1;stroke:none"
           d="m -2913.2799,1878.667 c 0,0 141.4213,-149.5026 169.7056,-139.4011 28.2843,10.1015 70.7107,131.3198 56.5685,113.1371 -14.1421,-18.1827 -34.3452,-40.4061 -72.731,-18.1827 -38.3857,22.2233 -6.0609,30.3045 -36.3654,32.3248 -30.3046,2.0203 -54.5483,-34.3452 -48.4874,-16.1624 6.0609,18.1827 22.2234,28.2843 -12.1218,30.3046 -34.3452,2.0203 -56.5685,-2.0203 -56.5685,-2.0203 z"
           id="path4082"
           inkscape:connector-curvature="0" />
        <path
           style="fill:#a02c2c;fill-opacity:1;stroke:none"
           d="m -1799.3438,1577.5 c -94.5955,40.8538 -297.4508,206.033 -398.75,266.8125 -97.9564,58.7739 -222.2595,-6.421 -266.375,-33.625 71.3849,85.2256 146.7866,190.1407 198.75,175.9687 53.0443,-14.4666 344.1345,-277.1796 478.375,-338.25 l -12,-70.9062 z"
           id="path4084"
           inkscape:connector-curvature="0" />
        <path
           id="path4098"
           d="m -561.55196,1733.0635 c 94.5955,40.8538 253.00409,179.769 354.30329,240.5485 97.9564,58.7739 236.401634,5.7008 280.517134,-21.5032 -71.3849004,85.2256 -160.928736,178.0189 -212.892134,163.8469 -53.0443,-14.4666 -297.66748,-261.0172 -431.90798,-322.0876 z"
           style="fill:#a02c2c;fill-opacity:1;stroke:none"
           inkscape:connector-curvature="0"
           sodipodi:nodetypes="cscscc" />
      </g>
      <g
         transform="translate(-1527.3506,-193.94929)"
         id="g4018"
         style="stroke:none">
        <path
           style="fill:#241c1c;fill-opacity:1;stroke:none"
           d="M 548.125,-706.46875 C 391.00441,-703.724 232.8091,-672.6112 91.21875,-603.25 c -117.56241,58.40304 -221.47302,145.23874 -297.0625,252.8125 -88.63776,124.03505 -142.37886,270.477132 -169.38949,419.981194 -12.10449,65.600886 -20.2211,132.139496 -23.82926,198.706306 -14.17901,12.62555 -23.80231,29.91544 -30.75,47.375 -14.29645,38.72066 -18.59594,80.37828 -20.375,121.4375 -1.69362,53.91026 2.6529,107.92973 10.5,161.25 1.17708,7.63002 2.6322,15.18969 4.03125,22.78125 -97.42732,99.30507 -181.3879,215.04671 -229.625,346.46875 -29.86863,82.1496 -37.88487,169.8236 -51.15668,255.7613 -8.50556,61.4689 -15.83478,123.4783 -13.34332,185.645 2.22227,30.1054 11.86268,62.5407 37.05,81.3499 26.74638,20.0875 65.35717,20.6613 93.58082,3.2704 30.84891,-16.6142 58.67102,-38.0059 87.38592,-57.9508 95.29,-69.1685 185.93772,-144.5645 274.24298,-222.3343 19.50716,-17.5228 38.82398,-35.3869 57.86528,-53.3978 35.21832,67.9159 92.201443,121.1331 150.967225,168.6863 7.886992,6.8139 17.352629,12.5312 24.4879189,19.7773 25.8168591,92.5365 38.5648371,189.5506 30.4948111,285.5806 -4.376664,41.624 -16.4803067,81.9352 -30.574955,121.1121 -7.894769,29.2672 -0.8602775,64.3436 24.09375,83.4375 23.528649,18.7103 55.0992,19.8578 83.71875,22.9688 78.73069,6.4522 157.77306,5.7281 236.7182,4.9963 71.95109,-1.3305 144.24039,-4.0487 215.70364,-13.3914 22.82892,-3.5263 47.78807,-12.696 59.70316,-34.0737 10.51121,-18.1456 10.13833,-41.2361 1.04061,-59.8716 -12.11725,-37.1131 -22.4971,-74.7542 -30.50936,-113.0034 42.36281,13.2771 86.50534,24.9912 131.34188,21.3823 115.54897,-5.9205 232.0352,0.029 346.83442,-17.1251 35.6641,-5.2137 73.6107,-12.4838 101.6987,-36.7572 22.7113,-18.6375 30.0994,-50.7812 24.5937,-78.8438 -7.2195,-50.4605 -16.5412,-100.5406 -26.3918,-150.5694 -12.1247,-64.4754 -24.08,-128.9669 -33.908,-193.8264 -6.6961,-47.0224 -12.2644,-94.5893 -12.5126,-142.0104 1.8751,-37.8334 20.1522,-72.1693 41.0438,-102.79115 24.5315,-36.94656 54.0341,-71.65255 68.8936,-113.9901 8.2011,-26.22301 5.8858,-54.9206 -4.1246,-80.29811 -23.8252,-78.63186 -48.8006,-157.3334 -60.1424,-238.85475 -5.1923,-35.63024 -8.3151,-71.85802 -7.7642,-107.81589 40.1959,-0.89348 80.6784,0.2569 120.5573,-5.20514 39.5376,-10.94148 65.8704,-53.87809 59.9527,-94.07588 -0.7013,-32.95841 -1.4025,-65.91682 -2.1038,-98.87523 8.7613,-0.16905 17.5211,-0.40819 26.2813,-0.625 -5.4016,-49.03213 -0.5345,-98.98837 -6.5937,-147.75 23.3191,11.529195 52.9232,1.777262 68,-18.5625 11.3855,-13.972593 13.7919,-33.4052549 9.0937,-50.375 -6.4223,-23.713035 -23.8272,-42.030105 -37.6359,-61.608616 -32.7922,-42.069404 -69.2233,-82.651804 -114.7391,-111.266384 -13.2286,-7.19172 -27.886,-11.92027 -42.9687,-12.90625 -4.559,-19.88235 -12.5014,-39.23888 -13.001,-59.83578 -3.6207,-23.19348 -14.0478,-44.56648 -23.1881,-65.98446 C 1124.3201,-485.8836 978.31516,-614.85275 806.65625,-668.65625 723.3773,-695.62979 635.61129,-707.10031 548.125,-706.46875 z"
           id="path3897"
           inkscape:connector-curvature="0" />
        <g
           id="g3022"
           style="stroke:none">
          <path
             inkscape:connector-curvature="0"
             id="path3009"
             d="m -248.57143,532.36218 c 0,0 -328.57143,234.28572 -380,548.57142 -51.42857,314.2857 -42.85714,365.7143 0,360 42.85714,-5.7143 525.71429,-382.8571 565.714287,-505.71427 40,-122.85715 -185.714287,-402.85715 -185.714287,-402.85715 z"
             style="fill:#ffe680;fill-opacity:1;stroke:none" />
          <path
             inkscape:connector-curvature="0"
             id="path3011"
             d="m -248.5625,532.375 c 0,0 -74.41341,53.04019 -157.9375,142.5 -6.87293,63.85243 217.26998,69.27513 209.34375,108.90625 -8.57143,42.85715 -37.11607,48.59375 -165.6875,168.59375 -99.79899,93.1457 -221.75518,333.8244 -294.15625,473.1875 6.00776,13.7363 15.72252,17.0703 28.4375,15.375 42.85714,-5.7143 525.71875,-382.8616 565.71875,-505.71875 C -22.84375,812.3616 -248.5625,532.375 -248.5625,532.375 z"
             style="fill:#ffd42a;fill-opacity:1;stroke:none" />
        </g>
        <path
           style="fill:#e7c3b3;fill-opacity:1;stroke:none"
           d="m -11.428571,1166.6479 c 0,0 80,97.1429 102.857142,322.8571 22.857139,225.7143 -54.285714,271.4286 -25.714285,297.1429 28.571428,25.7143 520.000004,17.1429 511.428574,-5.7143 -8.57143,-22.8571 -71.42857,-220 -42.85715,-291.4286 28.57143,-71.4285 42.85715,-51.4285 28.57143,-94.2857 -14.28571,-42.8571 -574.285711,-228.5714 -574.285711,-228.5714 z"
           id="path2998"
           inkscape:connector-curvature="0" />
        <path
           inkscape:connector-curvature="0"
           style="fill:#a88b7d;fill-opacity:1;stroke:none"
           d="m -11.4375,1166.6562 c 0,0 72.065369,87.5206 98.9375,289.4376 112.90728,38.7333 332.33273,85.6569 355.34375,136.2812 21.26246,46.7774 -28.67293,147.328 -25,207.5 90.79551,-3.4036 162.63354,-10.0814 159.3125,-18.9375 -8.57143,-22.8571 -71.44642,-220.0089 -42.875,-291.4375 28.57143,-71.4285 42.84822,-51.4241 28.5625,-94.2812 C 548.55804,1352.3617 -11.4375,1166.6562 -11.4375,1166.6562 z"
           id="path3000" />
        <path
           style="fill:#e7c3b3;fill-opacity:1;stroke:none"
           d="m -48.571429,352.36218 c 0,0 -177.142861,525.71428 -77.142861,760.00002 100.000004,234.2857 737.14286,500 837.14286,491.4285 100,-8.5714 434.28573,5.7143 434.28573,-54.2857 0,-60 -91.4286,-431.4285 -71.4286,-537.1428 20,-105.71431 122.8571,-177.14288 111.4286,-231.42859 C 1174.2857,726.64789 1077.1428,492.36218 1120,292.36218 1162.8571,92.362184 1277.1428,66.647897 1282.8571,26.647897 c 5.7143,-40 -82.8571,-80 -80,-128.571427 2.8572,-48.57143 -40,-291.42858 -191.4285,-362.85715 C 860,-536.20925 -62.857143,-290.49496 -62.857143,-290.49496 l -68.571437,500 z"
           id="path2996"
           inkscape:connector-curvature="0" />
        <path
           style="fill:#a88b7d;fill-opacity:1;stroke:none"
           d="m 908.57143,1252.3622 c 0,0 -34.28572,54.2857 -65.71429,-80 -31.42857,-134.2857 74.28572,-242.85716 74.28572,-242.85716 l -280,79.99996 37.14285,214.2858 128.57143,65.7142 c 0,0 91.42857,8.5715 105.71429,-37.1428 z"
           id="path3994"
           inkscape:connector-curvature="0" />
        <path
           style="fill:#a88b7d;fill-opacity:1;stroke:none"
           d="m 876.81241,24.026892 299.00509,-96.974644 202.0306,58.588847 -187.8884,-101.015255 z"
           id="path3992"
           inkscape:connector-curvature="0"
           sodipodi:nodetypes="ccccc" />
        <path
           style="fill:#a88b7d;fill-opacity:1;stroke:none"
           d="M -48.571429,655.21933 188.57143,558.07647 c 0,0 -208.57143,-291.42857 -185.7142871,-405.71429 C 25.714286,38.076468 100,118.07647 100,118.07647 c 0,0 25.71429,-331.42857 451.42857,-425.71429 425.71429,-94.28571 618.57143,30 618.57143,30 l -91.4286,-147.14285 -1127.142829,0 c 0,0 -125.714281,371.428567 -125.714281,385.714281 0,14.285714 125.714281,348.571429 122.857139,371.428569 -2.857143,22.85715 40,202.85715 40,202.85715 z"
           id="path3984"
           inkscape:connector-curvature="0"
           sodipodi:nodetypes="ccscscccsscc" />
        <path
           style="fill:#a88b7d;fill-opacity:1;stroke:none"
           d="m 908.57143,820.93361 c 0,0 142.85717,8.57143 137.14287,-94.28571 C 1040,623.79075 794.28571,595.21933 831.42857,429.50504 c 25.6281,-114.34078 194.28573,-140 171.42853,-182.85714 -22.8571,-42.85715 -157.14281,-60 -157.14281,-60 0,0 -72.27831,137.22476 -71.42858,191.42857 0.98042,62.54025 0,134.28571 51.42858,200 51.42857,65.71428 142.85714,137.14286 142.85714,137.14286 0,0 0,37.14285 0,48.57142 0,11.42858 -60,57.14286 -60,57.14286 z"
           id="path3878"
           inkscape:connector-curvature="0"
           sodipodi:nodetypes="cssscsscsc" />
        <path
           style="fill:#ffe680;fill-opacity:1;stroke:none"
           d="M -85.714286,675.21933 140,552.36218 c 0,0 -157.142857,-114.28571 -162.857143,-328.57143 C -28.571429,9.5050398 -25.714286,55.219325 -25.714286,55.219325 L 77.142857,72.362183 c 0,0 51.428573,-402.857143 580.000003,-442.857143 528.57144,-40 520.00004,125.71428 520.00004,114.28571 0,-11.42857 -154.2858,-502.85714 -808.57147,-382.85714 -654.28572,120 -685.71429,745.71429 -700,880 -14.28572,134.28572 125.71428,345.71429 125.71428,345.71429 z"
           id="path3016"
           inkscape:connector-curvature="0"
           sodipodi:nodetypes="ccsccsssscc" />
        <g
           id="g3018"
           style="fill:#e7c3b3;fill-opacity:1;stroke:none">
          <path
             inkscape:connector-curvature="0"
             id="path3005"
             d="m -42.857143,515.21933 c -5.714286,-31.42858 -205.714287,-240 -291.428567,-222.85715 C -420,309.50504 -380,703.79075 -322.85714,703.79075 c 57.14285,0 97.14285,-91.42857 100,-57.14285 2.85714,34.28571 -40,74.28571 -11.42857,111.42857 28.57142,37.14286 191.428567,-88.57143 191.428567,-88.57143 z"
             style="fill:#e7c3b3;fill-opacity:1;stroke:none" />
          <path
             inkscape:connector-curvature="0"
             id="path3007"
             d="m -157.14286,475.21933 c 0,0 -154.28571,-171.42858 -171.42857,-122.85715 -17.14286,48.57143 0,297.14286 17.14286,257.14286 17.14286,-40 -28.57143,-122.85714 17.14286,-117.14286 45.71428,5.71429 97.14285,22.85715 68.57142,0 -28.57142,-22.85714 -82.85714,-94.28571 -62.85714,-97.14285 20,-2.85715 88.57143,82.85714 131.42857,80 z"
             style="fill:#816356;fill-opacity:1;stroke:none" />
          <path
             style="fill:#816356;fill-opacity:1;stroke:none"
             d="m -80.8125,519 c 0,0 -105.05156,282.85712 -123.2343,103.04997 -3.67518,-36.34343 -89.67312,86.41634 -142.5157,58.70003 7.30342,14.5407 15.33418,23.03125 23.71875,23.03125 57.14285,0 97.14285,-91.41072 100,-57.125 2.85714,34.28571 -40.00893,74.26339 -11.4375,111.40625 13.32682,17.32487 55.86444,-0.7765 97.46875,-25.03125 z"
             id="path3884"
             inkscape:connector-curvature="0"
             sodipodi:nodetypes="cscssscc" />
        </g>
        <path
           style="fill:#a88b7d;fill-opacity:1;stroke:none"
           d="M 181.82746,11.905061 426.28437,-44.663481 668.72098,13.925367 353.55339,-103.25233 z"
           id="path3990"
           inkscape:connector-curvature="0" />
        <path
           inkscape:connector-curvature="0"
           style="fill:#ffd42a;fill-opacity:1;stroke:none"
           d="m 672.375,-478.5 c -25.21601,0.0197 -51.33732,0.50563 -78.40625,1.5 C 98.993999,-458.81725 24.25,-6.28125 24.25,-6.28125 l -88.65625,-38.25 c 0.604438,1.989552 1.301414,20.094424 -10.34375,161.5 -14.142136,171.72593 46.46875,307.09375 46.46875,307.09375 l -36.375,-8.09375 2.03125,232.34375 c 0,0 4.211154,3.11188 11.34375,8.15625 L 140,552.375 c 0,0 -157.129464,-114.30803 -162.84375,-328.59375 -5.714286,-214.2857102 -2.875,-168.5625 -2.875,-168.5625 L 77.15625,72.375 c 0,0 51.42857,-402.875 580,-442.875 437.72325,-33.125 507.05855,74.84097 517.96875,106.4375 -6.9798,-22.54803 -33.0862,-89.55022 -90.6875,-162.0625 C 990.25455,-454.48478 855.47354,-478.64332 672.375,-478.5 z M -64.40625,-44.53125 c -0.129604,-0.426602 -0.25,-0.125 -0.25,-0.125 l 0.25,0.125 z M 1175.3438,-263.4375 c 0.472,1.54807 0.8108,2.82902 1.0937,3.90625 -0.2609,-1.09108 -0.6019,-2.42109 -1.0937,-3.90625 z m 1.125,3.96875 c 0.7979,3.35937 0.6874,4.67857 0.6874,3.25 0,-0.42256 -0.2481,-1.5702 -0.6874,-3.25 z"
           id="path3026" />
        <path
           style="fill:#241c1c;fill-opacity:1;stroke:none"
           d="m 680.84282,199.79343 c 0,0 4.04061,-48.48732 74.75128,-70.71067 70.71068,-22.22336 125.25892,32.32488 125.25892,32.32488 l -2.02031,74.75129 c 0,0 -28.28427,-32.32489 -80.8122,-36.3655 -52.52793,-4.04061 -103.03556,52.52794 -103.03556,52.52794 z"
           id="path3077"
           inkscape:connector-curvature="0" />
        <path
           style="fill:#a88b7d;fill-opacity:1;stroke:none"
           d="m 34.285714,309.50504 c 0,0 139.999996,-37.14286 182.857146,-51.42857 C 260,243.79075 308.57143,246.6479 308.57143,246.6479 c 0,0 -42.85714,180 8.57143,188.57143 51.42857,8.57142 420,-28.57143 428.57143,-57.14286 8.57142,-28.57143 -17.14286,-128.57143 8.57142,-148.57143 25.71429,-20 131.42858,20 131.42858,20 L 840,375.21933 l 270,-10.00001 25.7143,-117.14285 c 0,0 -352.85716,-78.57143 -381.42859,-78.57143 -28.57142,0 -282.85714,57.14286 -320,62.85714 -37.14285,5.71429 -125.71428,-31.42857 -125.71428,-31.42857 0,0 -180,34.28572 -191.42857,40 C 105.71429,246.6479 2.8571429,292.36218 2.8571429,292.36218 L 20,358.07647 z"
           id="path3986"
           inkscape:connector-curvature="0"
           sodipodi:nodetypes="cscsssccccsscsccc" />
        <path
           style="fill:#241c1c;fill-opacity:1;stroke:none"
           d="m 299.57947,172.54905 c 0,0 -544.03639,158.56422 -525.85364,158.56422 18.18275,0 76.77159,58.58884 76.77159,58.58884 0,0 127.532251,-81.28474 197.989903,-107.07617 88.048227,-32.23056 275.335807,-57.54896 275.335807,-57.54896 z"
           id="path3079"
           inkscape:connector-curvature="0"
           sodipodi:nodetypes="cscacc" />
        <rect
           style="fill:#aaccff;fill-opacity:1;stroke:none"
           id="rect3031"
           width="434.28571"
           height="285.85788"
           x="266.15741"
           y="144.36777"
           ry="27.224558"
           transform="matrix(0.99430224,-0.10659767,0.10659767,0.99430224,0,0)" />
        <path
           inkscape:connector-curvature="0"
           style="fill:#241c1c;fill-opacity:1;stroke:none"
           d="M 285.19344,97.373722 C 267.65639,99.253844 255.04548,114.89345 256.9256,132.4305 l 8.17804,76.28163 24.67113,-2.64496 -6.699,-62.48568 c -1.68729,-15.73838 9.61668,-29.75716 25.35506,-31.44445 l 375.0073,-40.203979 c 15.73838,-1.687289 29.75717,9.616679 31.44445,25.355061 l 6.699,62.485678 24.67113,-2.64495 -8.17804,-76.281626 C 736.19454,63.310169 720.55494,50.699261 703.01788,52.579382 l -417.82444,44.79434 z"
           id="rect3033" />
        <rect
           ry="27.224558"
           y="79.164215"
           x="848.75696"
           height="285.85788"
           width="434.28571"
           id="rect3073"
           style="fill:#aaccff;fill-opacity:1;stroke:none"
           transform="matrix(0.99976945,-0.0214718,0.0214718,0.99976945,0,0)" />
        <path
           id="path3075"
           d="m 856.9225,43.626704 c -17.63348,0.37871 -31.53138,14.886668 -31.15267,32.520151 l 1.64729,76.701065 24.80678,-0.53277 -1.34937,-62.829263 c -0.33986,-15.82492 12.11771,-28.829335 27.94263,-29.169203 l 377.06934,-8.098223 c 15.8249,-0.339868 28.8293,12.117705 29.1692,27.942626 l 1.3493,62.829263 24.8068,-0.53277 -1.6473,-76.701063 c -0.3787,-17.633484 -14.8866,-31.531376 -32.5201,-31.152666 l -420.1219,9.022853 z"
           style="fill:#241c1c;fill-opacity:1;stroke:none"
           inkscape:connector-curvature="0" />
        <path
           style="fill:#a88b7d;fill-opacity:1;stroke:none"
           d="m 480.83261,785.68191 c 0,0 8.08122,68.69037 40.4061,107.07617 32.32488,38.3858 137.38075,-10.10152 151.52288,-28.28427 14.14214,-18.18275 68.69038,6.06091 90.91373,-6.06092 22.22336,-12.12183 -38.38579,-60.60915 -38.38579,-60.60915 l -62.62946,18.18275 -54.54824,48.48732 c 0,0 -30.30457,0 -48.48732,0 -18.18275,0 -78.7919,-78.7919 -78.7919,-78.7919 z"
           id="path3996"
           inkscape:connector-curvature="0" />
        <path
           style="fill:#241c1c;fill-opacity:1;stroke:none"
           d="m 844.48753,185.6513 c 0,10.10152 -113.13709,157.5838 -48.48732,317.1879 64.64976,159.6041 191.92898,167.68532 189.90867,240.4163 -2.0203,72.73099 -103.03556,103.03556 -105.05586,76.7716 -2.02031,-26.26397 86.87312,-70.71068 78.7919,-105.05587 C 951.5637,680.62605 608.11183,541.22499 844.48753,185.6513 z"
           id="path3081"
           inkscape:connector-curvature="0" />
        <path
           style="fill:#241c1c;fill-opacity:1;stroke:none"
           d="m 604.07122,735.17428 c 0,0 -12.12183,-78.79189 -88.89342,-24.24366 -76.7716,54.54824 -62.62946,147.48227 30.30457,175.76655 92.93404,28.28427 88.89343,-52.52794 119.198,-52.52794 30.30458,0 82.83251,28.28427 84.85282,-12.12183 2.0203,-40.4061 -32.32488,-60.60915 -70.71068,-44.44671 -38.3858,16.16244 -10.10153,60.60915 -82.83251,68.69037 -72.73098,8.08122 -119.198,-68.69037 -72.73098,-96.97464 46.46702,-28.28427 44.44671,-60.60915 80.8122,-14.14214 z"
           id="path3083"
           inkscape:connector-curvature="0" />
        <path
           style="fill:#241c1c;fill-opacity:1;stroke:none"
           d="m 971.76675,836.18954 c 0,0 44.44675,86.87312 -305.06607,119.198 C 317.1879,987.71242 339.41126,793.76313 339.41126,793.76313 c 0,0 -177.78685,327.28947 -123.23862,478.81227 54.54824,151.5229 713.1677,46.4671 701.04587,-10.1015 -12.12183,-56.5685 -34.34519,30.3046 -58.58885,12.1218 -24.24366,-18.1827 -123.23861,-208.0914 0,-303.04572 123.23861,-94.95434 139.40105,-113.13709 113.13709,-135.36044 z"
           id="path3085"
           inkscape:connector-curvature="0" />
        <path
           style="fill:#ffffff;fill-opacity:1;stroke:none"
           d="m 844.48753,961.44845 c 0,0 -58.58885,32.32489 -62.62946,84.85285 -4.04061,52.5279 10.10153,82.8325 -2.02031,82.8325 -12.12183,0 -408.10162,28.2842 -452.54834,-20.2031 -44.44671,-48.4873 -48.48732,-155.56347 2.02031,-183.84774 64.64976,24.24366 165.66502,103.03554 515.1778,36.36549 z"
           id="path3087"
           inkscape:connector-curvature="0"
           sodipodi:nodetypes="cssscc" />
        <path
           style="fill:#ffffff;fill-opacity:1;stroke:none"
           d="m 785.89868,1151.3571 c 0,0 0,60.6092 22.22336,90.9138 22.22335,30.3045 38.38579,40.4061 30.30457,40.4061 -8.08122,0 -359.61431,96.9746 -529.31993,26.2639 -36.36549,-58.5889 -52.52793,-157.5838 6.06091,-157.5838 58.58885,0 412.14224,38.3858 470.73109,0 z"
           id="path3089"
           inkscape:connector-curvature="0"
           sodipodi:nodetypes="csscsc" />
        <path
           style="fill:#241c1c;fill-opacity:1;stroke:none"
           d="m 600.03061,1153.3774 c 0,-12.1218 16.16244,-70.7106 16.16244,-70.7106 l 26.26397,66.67 z"
           id="path3091"
           inkscape:connector-curvature="0" />
        <path
           style="fill:#ffd42a;fill-opacity:1;stroke:none"
           d="M 706.6063,31.352341 C 677.0322,12.109931 363.72005,-136.12729 318.55004,-135.4302 273.38001,-134.73311 155.92357,30.091785 181.15408,13.798784 206.38459,-2.494222 353.1291,-84.638489 402.62485,-74.37823 452.12061,-64.117972 706.6063,31.352341 706.6063,31.352341 z"
           id="path3093"
           inkscape:connector-curvature="0" />
        <path
           inkscape:connector-curvature="0"
           id="path3095"
           d="M 858.54139,28.655896 C 887.59047,8.6296964 1196.8275,-147.93099 1242,-148.44178 c 45.1725,-0.51078 166.9936,161.114985 141.3365,145.502335 -25.6571,-15.612631 -174.5453,-93.804301 -223.749,-82.224438 -49.2038,11.579882 -301.04611,113.819779 -301.04611,113.819779 z"
           style="fill:#ffd42a;fill-opacity:1;stroke:none" />
        <path
           style="fill:#ffffff;fill-opacity:1;stroke:none"
           d="m 681.75779,85.099147 c 0,0 -348.74592,26.510663 -355.42175,50.928883 -6.67582,24.41823 -21.2841,252.10147 29.8308,239.99984 51.11492,-12.10164 195.14409,-8.83028 150.34372,-31.4421 -44.80037,-22.61184 -95.91528,-10.5102 -114.84568,-64.16068 -18.93041,-53.65048 -76.35325,-85.73082 -28.3923,-119.92345 47.96094,-34.19261 321.27789,-63.606745 318.48521,-75.402493 z"
           id="path3891"
           inkscape:connector-curvature="0" />
        <path
           inkscape:connector-curvature="0"
           id="path3893"
           d="m 1271.1592,72.604389 c 0,0 -349.66267,-7.911537 -358.70721,15.731873 -9.04464,23.643408 -45.97128,248.786678 6.08595,241.770048 52.05723,-7.01664 195.06666,10.4019 152.70696,-16.50575 -42.3597,-26.90767 -94.417,-19.89103 -107.97989,-75.14301 -13.56299,-55.25197 -67.55295,-92.82346 -16.46213,-122.13416 51.09085,-29.310679 325.97552,-31.7058 324.35632,-43.719001 z"
           style="fill:#ffffff;fill-opacity:1;stroke:none" />
        <path
           style="fill:#a88b7d;fill-opacity:1;stroke:none"
           d="m 555.5839,1395.814 c 8.08122,0 149.50257,20.2031 258.59905,-30.3045 109.09647,-50.5077 98.99495,-88.8935 123.23861,-78.7919 24.24366,10.1015 44.44668,117.1777 10.10152,115.1573 -34.34518,-2.0203 -393.95949,44.4468 -391.93918,-6.0609 z"
           id="path3998"
           inkscape:connector-curvature="0" />
        <path
           style="fill:#ffffff;fill-opacity:1;stroke:none"
           d="m 731.35044,466.47371 c 0,0 20.20305,115.15739 84.85282,169.70562 64.64976,54.54824 121.2183,60.60916 111.11678,86.87312 -10.10153,26.26397 -141.42136,80.81221 -125.25892,44.44671 16.16244,-36.36549 36.36549,-12.12183 22.22336,-52.52793 -14.14214,-40.4061 -155.5635,-214.15234 -92.93404,-248.49752 z"
           id="path4000"
           inkscape:connector-curvature="0" />
        <path
           style="fill:#ffffff;fill-opacity:1;stroke:none"
           d="M -292.94424,96.757875 C -278.8021,68.473605 -175.76654,-375.99352 76.771593,-493.17122 329.30973,-610.34891 426.28437,-614.38952 426.28437,-614.38952 L 212.13204,-410.3387 200.0102,-505.29305 c 0,0 -313.14728,440.426515 -313.14728,410.121945 0,-30.304585 -2.02031,-78.791905 -2.02031,-78.791905 z"
           id="path4004"
           inkscape:connector-curvature="0" />
        <path
           style="fill:#ffffff;fill-opacity:1;stroke:none"
           d="m -630.33518,1216.0069 c 4.04061,-12.1218 46.46701,-248.49754 109.09647,-341.43157 62.62946,-92.93403 145.46197,-137.38075 145.46197,-137.38075 l 34.34518,28.28428 -214.15233,232.33511 z"
           id="path4006"
           inkscape:connector-curvature="0" />
        <path
           style="fill:#ffffff;fill-opacity:1;stroke:none"
           d="m -143.44166,422.02699 c -4.04061,-14.14213 -159.6041,-119.198 -185.86807,-115.15739 -26.26397,4.04061 -46.46702,147.48228 -38.3858,115.15739 8.08122,-32.32488 36.3655,-107.07617 46.46702,-101.01525 10.10153,6.06092 177.78685,101.01525 177.78685,101.01525 z"
           id="path4008"
           inkscape:connector-curvature="0" />
        <path
           style="fill:#ffffff;fill-opacity:1;stroke:none"
           d="M -177.78685,333.13357 14.142136,268.48381 -149.50258,347.27571 z"
           id="path4010"
           inkscape:connector-curvature="0" />
      </g>
      <path
         inkscape:connector-curvature="0"
         id="path4159"
         d="m -2434.2857,1772.3622 c 0,0 -62.8572,-45.7143 -34.2857,-74.2857 28.5714,-28.5715 548.5714,-325.7143 640,-302.8572 91.4285,22.8572 205.7143,142.8572 137.1428,120 -68.5714,-22.8571 -142.8571,-97.1428 -251.4285,-51.4285 -108.5715,45.7142 -491.4286,308.5714 -491.4286,308.5714 z"
         style="fill:#d35f5f;fill-opacity:1;stroke:none" />
      <text
         sodipodi:linespacing="125%"
         id="text4169"
         y="2797.4324"
         x="-2270.5317"
         style="font-size:234.11808777px;font-style:normal;font-weight:normal;line-height:125%;letter-spacing:0px;word-spacing:0px;fill:#1a1a1a;fill-opacity:1;stroke:none;font-family:Sans"
         xml:space="preserve"><tspan
           style="font-style:normal;font-variant:normal;font-weight:bold;font-stretch:normal;fill:#1a1a1a;fill-opacity:1;stroke:none;font-family:Arial;-inkscape-font-specification:Arial Bold"
           y="2797.4324"
           x="-2270.5317"
           id="tspan4171"
           sodipodi:role="line">nalog</tspan></text>
      <text
         xml:space="preserve"
         style="font-size:234.11808777px;font-style:normal;font-weight:normal;line-height:125%;letter-spacing:0px;word-spacing:0px;fill:#1a1a1a;fill-opacity:1;stroke:none;font-family:Sans"
         x="-72.439804"
         y="2829.7573"
         id="text4173"
         sodipodi:linespacing="125%"><tspan
           sodipodi:role="line"
           id="tspan4175"
           x="-72.439804"
           y="2829.7573"
           style="font-style:normal;font-variant:normal;font-weight:bold;font-stretch:normal;fill:#1a1a1a;fill-opacity:1;stroke:none;font-family:Arial;-inkscape-font-specification:Arial Bold">ixel</tspan></text>
    </g>
    <rect
       style="fill:#241c1c;fill-opacity:1;stroke:none"
       id="rect4245"
       width="3343.521"
       height="25.139254"
       x="-1376.796"
       y="1980.0466"
       ry="9.4100904" />
    <rect
       style="fill:none;stroke:none;stroke-width:10;stroke-miterlimit:4;stroke-dasharray:none"
       id="rect4247"
       width="6999.2295"
       height="9229.1631"
       x="-3265.2639"
       y="-1388.5756"
       ry="14.564279" />
    <rect
       ry="7.9625225"
       y="2794.8577"
       x="-3265.2639"
       height="5045.73"
       width="6999.2295"
       id="rect4249"
       style="fill:#241c1c;stroke:none;fill-opacity:1" />
    <text
       xml:space="preserve"
       style="font-size:406.0199585px;font-style:normal;font-weight:normal;line-height:125%;letter-spacing:0px;word-spacing:0px;fill:#241c1c;fill-opacity:1;stroke:none;font-family:Sans"
       x="-2585.9028"
       y="2607.4927"
       id="text4251"
       sodipodi:linespacing="125%"
       transform="scale(1.0364804,0.96480357)"><tspan
         sodipodi:role="line"
         id="tspan4253"
         x="-2585.9028"
         y="2607.4927">Photos   GITHUB   Twitter Blog</tspan></text>
  </g>
</svg>
