<?xml version="1.0" encoding="UTF-8" standalone="no"?>
<!-- Created with Inkscape (http://www.inkscape.org/) -->

<svg
   xmlns:dc="http://purl.org/dc/elements/1.1/"
   xmlns:cc="http://creativecommons.org/ns#"
   xmlns:rdf="http://www.w3.org/1999/02/22-rdf-syntax-ns#"
   xmlns:svg="http://www.w3.org/2000/svg"
   xmlns="http://www.w3.org/2000/svg"
   xmlns:sodipodi="http://sodipodi.sourceforge.net/DTD/sodipodi-0.dtd"
   xmlns:inkscape="http://www.inkscape.org/namespaces/inkscape"
   width="744.09448819"
   height="1052.3622047"
   id="svg2"
   version="1.1"
   inkscape:version="0.48.5 r10040"
   sodipodi:docname="twitterIcon.svg">
  <defs
     id="defs4" />
  <sodipodi:namedview
     id="base"
     pagecolor="#ffffff"
     bordercolor="#666666"
     borderopacity="1.0"
     inkscape:pageopacity="0.0"
     inkscape:pageshadow="2"
     inkscape:zoom="15.839192"
     inkscape:cx="26.847199"
     inkscape:cy="1032.6327"
     inkscape:document-units="px"
     inkscape:current-layer="layer1"
     showgrid="false"
     inkscape:window-width="1920"
     inkscape:window-height="1028"
     inkscape:window-x="-8"
     inkscape:window-y="-8"
     inkscape:window-maximized="1" />
  <metadata
     id="metadata7">
    <rdf:RDF>
      <cc:Work
         rdf:about="">
        <dc:format>image/svg+xml</dc:format>
        <dc:type
           rdf:resource="http://purl.org/dc/dcmitype/StillImage" />
        <dc:title />
      </cc:Work>
    </rdf:RDF>
  </metadata>
  <g
     inkscape:label="Layer 1"
     inkscape:groupmode="layer"
     id="layer1">
    <path
       style="fill:#c83737;fill-opacity:1;stroke:none"
       d="m 17.320107,2.3462415 c -3.658039,0 -6.624627,2.963205 -6.624627,6.6212366 0,0.05431 0.0022,0.108568 0.0033,0.162571 -2.1960446,0.551705 -4.0985256,1.7727459 -5.4460136,3.4139149 1.916826,-1.596765 3.928766,-2.503287 5.5306826,-2.516408 0.301198,1.872155 1.386862,3.481545 2.909279,4.480765 -0.343694,1.936625 -1.469939,4.231344 -3.254737,6.340133 -1.4746136,1.742303 -3.1486236,3.059576 -4.7313936,3.837275 1.870352,1.976065 4.6011186,3.220867 7.6440616,3.220867 5.63821,0 10.211273,-4.275409 10.211273,-9.550839 0,-1.771895 -0.51681,-3.431164 -1.415692,-4.853322 0.786725,-0.836805 1.357193,-1.877185 1.625678,-3.034591 -1.428179,0.208661 -3.435783,0.376958 -3.640839,0.230301 -0.318081,-0.227491 0.6914,-3.3651639 1.097333,-3.4105309 0.09443,-0.01057 0.366786,0.127843 0.724781,0.342069 -0.02432,-0.153807 -0.03723,-0.314414 -0.03723,-0.48093 0,-0.918635 0.395137,-1.6831186 0.917828,-1.8525896 -1.187905,-1.778293 -3.214328,-2.949922 -5.51375,-2.949922 z m 1.436012,2.858476 c 0.914507,0 1.656154,0.8468536 1.656154,1.8898496 0,1.042995 -0.741647,1.88646 -1.656154,1.88646 -0.914506,0 -1.656159,-0.843465 -1.656159,-1.88646 0,-1.042996 0.741653,-1.8898496 1.656159,-1.8898496 z m 5.161521,3.1666796 c -0.07949,0.15551 -0.172126,0.286825 -0.277722,0.392873 0.103059,0.07527 0.206185,0.149394 0.304815,0.223529 2.2e-5,-0.0068 0,-0.01352 0,-0.02031 0,-0.200888 -0.0096,-0.399756 -0.0271,-0.596081 z"
       id="path1"
       inkscape:connector-curvature="0"
       inkscape:label="#path2985" />
    <path
       inkscape:connector-curvature="0"
       id="path2"
       d="m 11.877402,2.3462415 c 3.658039,0 6.624627,2.963205 6.624627,6.6212366 0,0.05431 -0.0022,0.108568 -0.0033,0.162571 2.196045,0.551705 4.098526,1.7727459 5.446014,3.4139149 -1.916826,-1.596765 -3.928766,-2.503287 -5.530683,-2.516408 -0.301198,1.872155 -1.386862,3.481545 -2.909279,4.480765 0.343694,1.936625 1.469939,4.231344 3.254737,6.340133 1.474614,1.742303 3.148624,3.059576 4.731394,3.837275 -1.870352,1.976065 -4.601119,3.220867 -7.644062,3.220867 -5.63821,0 -10.2112726,-4.275409 -10.2112726,-9.550839 0,-1.771895 0.51681,-3.431164 1.415692,-4.853322 -0.786725,-0.836805 -1.357193,-1.877185 -1.625678,-3.034591 1.428179,0.208661 3.435783,0.376958 3.640839,0.230301 0.318081,-0.227491 -0.6914,-3.3651639 -1.097333,-3.4105309 -0.09443,-0.01057 -0.366786,0.127843 -0.724781,0.342069 0.02432,-0.153807 0.03723,-0.314414 0.03723,-0.48093 0,-0.918635 -0.395137,-1.6831186 -0.917828,-1.8525896 1.187905,-1.778293 3.214328,-2.949922 5.5137496,-2.949922 z m -1.436012,2.858476 c -0.9145066,0 -1.6561536,0.8468536 -1.6561536,1.8898496 0,1.042995 0.741647,1.88646 1.6561536,1.88646 0.914506,0 1.656159,-0.843465 1.656159,-1.88646 0,-1.042996 -0.741653,-1.8898496 -1.656159,-1.8898496 z M 5.2798694,8.3713971 c 0.07949,0.15551 0.172126,0.286825 0.277722,0.392873 -0.103059,0.07527 -0.206185,0.149394 -0.304815,0.223529 -2.2e-5,-0.0068 0,-0.01352 0,-0.02031 0,-0.200888 0.0096,-0.399756 0.0271,-0.596081 z"
       style="fill:#c83737;fill-opacity:1;stroke:none"
       inkscape:label="#path3016" />
  </g>
</svg>
